{
  "accessors": [
    {
      "bufferView": 2,
      "componentType": 5126,
      "count": 10040,
      "max": [
        824.0,
        296.0,
        912.0
      ],
      "min": [
        -1932.0,
        -512.0,
        -1296.0
      ],
      "type": "VEC3"
    },
    {
      "bufferView": 2,
      "byteOffset": 120480,
      "componentType": 5126,
      "count": 10040,
      "max": [
        1.0,
        1.0,
        1.0
      ],
      "min": [
        -1.0,
        -1.0,
        -1.0
      ],
      "type": "VEC3"
    },
    {
      "bufferView": 1,
      "componentType": 5126,
      "count": 10040,
      "max": [
        46.6875,
        106.0
      ],
      "min": [
        -100.0,
        -69.0
      ],
      "type": "VEC2"
    },
    {
      "bufferView": 0,
      "componentType": 5125,
      "count": 19965,
      "type": "SCALAR"
    },
    {
      "bufferView": 2,
      "byteOffset": 240960,
      "componentType": 5126,
      "count": 3223,
      "max": [
        824.0,
        288.0,
        728.0
      ],
      "min": [
        -1932.0,
        -512.0,
        -1296.0
      ],
      "type": "VEC3"
    },
    {
      "bufferView": 2,
      "byteOffset": 279636,
      "componentType": 5126,
      "count": 3223,
      "max": [
        1.0,
        1.0,
        1.0
      ],
      "min": [
        -1.0,
        -1.0,
        -1.0
      ],
      "type": "VEC3"
    },
    {
      "bufferView": 1,
      "byteOffset": 80320,
      "componentType": 5126,
      "count": 3223,
      "max": [
        13.15625,
        28.5
      ],
      "min": [
        -30.1875,
        -15.21684455871582
      ],
      "type": "VEC2"
    },
    {
      "bufferView": 0,
      "byteOffset": 79860,
      "componentType": 5125,
      "count": 7005,
      "type": "SCALAR"
    }
  ],
  "asset": {
    "extras": {
      "author": "Maxime66410 (https://sketchfab.com/Maxime66410)",
      "license": "CC-BY-4.0 (http://creativecommons.org/licenses/by/4.0/)",
      "source": "https://sketchfab.com/3d-models/half-life-c1a0-with-127-textures-9a808fce426b42779325f4e9d438b317",
      "title": "Half-Life - C1a0 [With 127 textures]"
    },
    "generator": "Sketchfab-12.66.0",
    "version": "2.0"
  },
  "bufferViews": [
    {
      "buffer": 0,
      "byteLength": 107880,
      "name": "floatBufferViews",
      "target": 34963
    },
    {
      "buffer": 0,
      "byteLength": 106104,
      "byteOffset": 107880,
      "byteStride": 8,
      "name": "floatBufferViews",
      "target": 34962
    },
    {
      "buffer": 0,
      "byteLength": 318312,
      "byteOffset": 213984,
      "byteStride": 12,
      "name": "floatBufferViews",
      "target": 34962
    }
  ],
  "buffers": [
    {
      "byteLength": 532296,
      "uri": "scene.bin"
    }
  ],
  "materials": [
    {
      "doubleSided": true,
      "name": "c1a0.obj.cleaner.materialmerger.gles",
      "pbrMetallicRoughness": {
        "metallicFactor": 0.0,
        "roughnessFactor": 0.6
      }
    }
  ],
  "meshes": [
    {
      "name": "Object_0",
      "primitives": [
        {
          "attributes": {
            "NORMAL": 1,
            "POSITION": 0,
            "TEXCOORD_0": 2
          },
          "indices": 3,
          "material": 0,
          "mode": 4
        }
      ]
    },
    {
      "name": "Object_1",
      "primitives": [
        {
          "attributes": {
            "NORMAL": 5,
            "POSITION": 4,
            "TEXCOORD_0": 6
          },
          "indices": 7,
          "material": 0,
          "mode": 4
        }
      ]
    }
  ],
  "nodes": [
    {
      "children": [
        1
      ],
      "matrix": [
        1.0,
        0.0,
        0.0,
        0.0,
        0.0,
        -1.0,
        0.0,
        0.0,
        0.0,
        0.0,
        -1.0,
        0.0,
        0.0,
        -299.98980712890625,
        -83.99761962890632,
        1.0
      ],
      "name": "Sketchfab_model"
    },
    {
      "children": [
        2,
        3
      ],
      "name": "c1a0.obj.cleaner.materialmerger.gles"
    },
    {
      "mesh": 0,
      "name": "Object_2"
    },
    {
      "mesh": 1,
      "name": "Object_3"
    }
  ],
  "scene": 0,
  "scenes": [
    {
      "name": "Sketchfab_Scene",
      "nodes": [
        0
      ]
    }
  ]
}
