{
  "accessors": [
    {
      "bufferView": 2,
      "componentType": 5126,
      "count": 420,
      "max": [
        0.8590445518493652,
        5.128689289093018,
        3.399174928665161
      ],
      "min": [
        -7.551562786102295,
        2.808936357498169,
        -1.1292370557785034
      ],
      "type": "VEC3"
    },
    {
      "bufferView": 2,
      "byteOffset": 5040,
      "componentType": 5126,
      "count": 420,
      "max": [
        1.0,
        1.0,
        1.0
      ],
      "min": [
        -1.0,
        -1.0,
        -1.0
      ],
      "type": "VEC3"
    },
    {
      "bufferView": 1,
      "componentType": 5125,
      "count": 480,
      "type": "SCALAR"
    },
    {
      "bufferView": 2,
      "byteOffset": 10080,
      "componentType": 5126,
      "count": 60,
      "max": [
        -15.143052101135254,
        7.377078533172607,
        0.990436315536499
      ],
      "min": [
        -15.783312797546387,
        6.822595596313477,
        -0.990434467792511
      ],
      "type": "VEC3"
    },
    {
      "bufferView": 2,
      "byteOffset": 10800,
      "componentType": 5126,
      "count": 60,
      "max": [
        0.8660268783569336,
        1.0,
        1.0
      ],
      "min": [
        -0.8660265803337097,
        -1.0,
        -1.0
      ],
      "type": "VEC3"
    },
    {
      "bufferView": 1,
      "byteOffset": 1920,
      "componentType": 5125,
      "count": 60,
      "type": "SCALAR"
    },
    {
      "bufferView": 2,
      "byteOffset": 11520,
      "componentType": 5126,
      "count": 1814,
      "max": [
        31.159198760986328,
        7.678684711456299,
        1.754229187965393
      ],
      "min": [
        -28.450031280517578,
        -4.614527702331543,
        -1.2226295471191406
      ],
      "type": "VEC3"
    },
    {
      "bufferView": 2,
      "byteOffset": 33288,
      "componentType": 5126,
      "count": 1814,
      "max": [
        1.0,
        1.0,
        1.0
      ],
      "min": [
        -1.0,
        -1.0,
        -1.0
      ],
      "type": "VEC3"
    },
    {
      "bufferView": 1,
      "byteOffset": 2160,
      "componentType": 5125,
      "count": 2010,
      "type": "SCALAR"
    },
    {
      "bufferView": 2,
      "byteOffset": 55056,
      "componentType": 5126,
      "count": 571,
      "max": [
        40.5290641784668,
        3.405254602432251,
        1.6667649745941162
      ],
      "min": [
        -40.85992431640625,
        -8.626057624816895,
        -1.666764736175537
      ],
      "type": "VEC3"
    },
    {
      "bufferView": 2,
      "byteOffset": 61908,
      "componentType": 5126,
      "count": 571,
      "max": [
        1.0,
        0.923444926738739,
        1.0
      ],
      "min": [
        -1.0,
        -0.9990368485450745,
        -1.0
      ],
      "type": "VEC3"
    },
    {
      "bufferView": 1,
      "byteOffset": 10200,
      "componentType": 5125,
      "count": 588,
      "type": "SCALAR"
    },
    {
      "bufferView": 2,
      "byteOffset": 68760,
      "componentType": 5126,
      "count": 167,
      "max": [
        -18.318605422973633,
        1.683347225189209,
        1.450966715812683
      ],
      "min": [
        -20.0828857421875,
        0.7843966484069824,
        0.535596489906311
      ],
      "type": "VEC3"
    },
    {
      "bufferView": 2,
      "byteOffset": 70764,
      "componentType": 5126,
      "count": 167,
      "max": [
        1.0,
        1.0,
        1.0
      ],
      "min": [
        -1.0,
        -1.0,
        -1.0
      ],
      "type": "VEC3"
    },
    {
      "bufferView": 1,
      "byteOffset": 12552,
      "componentType": 5125,
      "count": 192,
      "type": "SCALAR"
    },
    {
      "bufferView": 2,
      "byteOffset": 72768,
      "componentType": 5126,
      "count": 4904,
      "max": [
        39.800018310546875,
        7.55233907699585,
        1.6761475801467896
      ],
      "min": [
        -27.314836502075195,
        -10.418004035949707,
        -1.912082314491272
      ],
      "type": "VEC3"
    },
    {
      "bufferView": 2,
      "byteOffset": 131616,
      "componentType": 5126,
      "count": 4904,
      "max": [
        1.0,
        1.0,
        1.0
      ],
      "min": [
        -1.0,
        -1.0,
        -1.0
      ],
      "type": "VEC3"
    },
    {
      "bufferView": 1,
      "byteOffset": 13320,
      "componentType": 5125,
      "count": 5583,
      "type": "SCALAR"
    },
    {
      "bufferView": 2,
      "byteOffset": 190464,
      "componentType": 5126,
      "count": 885,
      "max": [
        23.41837501525879,
        6.702362060546875,
        1.6446926593780518
      ],
      "min": [
        -32.00743103027344,
        -2.5175132751464844,
        -1.6446917057037354
      ],
      "type": "VEC3"
    },
    {
      "bufferView": 2,
      "byteOffset": 201084,
      "componentType": 5126,
      "count": 885,
      "max": [
        1.0,
        1.0,
        1.0
      ],
      "min": [
        -1.0,
        -1.0,
        -1.0
      ],
      "type": "VEC3"
    },
    {
      "bufferView": 1,
      "byteOffset": 35652,
      "componentType": 5125,
      "count": 996,
      "type": "SCALAR"
    },
    {
      "bufferView": 2,
      "byteOffset": 211704,
      "componentType": 5126,
      "count": 1171,
      "max": [
        -10.555060386657715,
        7.732020378112793,
        1.557033658027649
      ],
      "min": [
        -20.52120590209961,
        2.8980658054351807,
        -1.5570324659347534
      ],
      "type": "VEC3"
    },
    {
      "bufferView": 2,
      "byteOffset": 225756,
      "componentType": 5126,
      "count": 1171,
      "max": [
        1.0,
        1.0,
        1.0
      ],
      "min": [
        -1.0,
        -1.0,
        -1.0
      ],
      "type": "VEC3"
    },
    {
      "bufferView": 1,
      "byteOffset": 39636,
      "componentType": 5125,
      "count": 1776,
      "type": "SCALAR"
    },
    {
      "bufferView": 2,
      "byteOffset": 239808,
      "componentType": 5126,
      "count": 500,
      "max": [
        -6.4012227058410645,
        2.7565219402313232,
        2.202394485473633
      ],
      "min": [
        -15.989274978637695,
        0.2594642639160156,
        1.3250929117202759
      ],
      "type": "VEC3"
    },
    {
      "bufferView": 2,
      "byteOffset": 245808,
      "componentType": 5126,
      "count": 500,
      "max": [
        0.9809587597846985,
        0.9983127117156982,
        1.0
      ],
      "min": [
        -0.9254050850868225,
        -0.9981659650802612,
        -1.0
      ],
      "type": "VEC3"
    },
    {
      "bufferView": 1,
      "byteOffset": 46740,
      "componentType": 5125,
      "count": 534,
      "type": "SCALAR"
    },
    {
      "bufferView": 2,
      "byteOffset": 251808,
      "componentType": 5126,
      "count": 334,
      "max": [
        -19.752290725708008,
        2.6601762771606445,
        1.2325245141983032
      ],
      "min": [
        -35.27593994140625,
        -0.5013818740844727,
        -1.8838106393814087
      ],
      "type": "VEC3"
    },
    {
      "bufferView": 2,
      "byteOffset": 255816,
      "componentType": 5126,
      "count": 334,
      "max": [
        1.0,
        1.0,
        1.0
      ],
      "min": [
        -1.0,
        -1.0,
        -1.0
      ],
      "type": "VEC3"
    },
    {
      "bufferView": 1,
      "byteOffset": 48876,
      "componentType": 5125,
      "count": 384,
      "type": "SCALAR"
    },
    {
      "bufferView": 2,
      "byteOffset": 259824,
      "componentType": 5126,
      "count": 8984,
      "max": [
        24.517807006835938,
        7.141083717346191,
        1.9398458003997803
      ],
      "min": [
        -40.587520599365234,
        -12.7333402633667,
        -1.9398481845855713
      ],
      "type": "VEC3"
    },
    {
      "bufferView": 2,
      "byteOffset": 367632,
      "componentType": 5126,
      "count": 8984,
      "max": [
        1.0,
        1.0,
        1.0
      ],
      "min": [
        -1.0,
        -1.0,
        -1.0
      ],
      "type": "VEC3"
    },
    {
      "bufferView": 1,
      "byteOffset": 50412,
      "componentType": 5125,
      "count": 9846,
      "type": "SCALAR"
    },
    {
      "bufferView": 2,
      "byteOffset": 475440,
      "componentType": 5126,
      "count": 84,
      "max": [
        -26.415987014770508,
        -0.3196094036102295,
        0.9544064998626709
      ],
      "min": [
        -31.827110290527344,
        -0.7988100051879883,
        -0.95440673828125
      ],
      "type": "VEC3"
    },
    {
      "bufferView": 2,
      "byteOffset": 476448,
      "componentType": 5126,
      "count": 84,
      "max": [
        1.0,
        0.8660271167755127,
        1.0
      ],
      "min": [
        -1.0,
        -0.8660280704498291,
        -1.0
      ],
      "type": "VEC3"
    },
    {
      "bufferView": 1,
      "byteOffset": 89796,
      "componentType": 5125,
      "count": 120,
      "type": "SCALAR"
    },
    {
      "bufferView": 2,
      "byteOffset": 477456,
      "componentType": 5126,
      "count": 331,
      "max": [
        -27.739608764648438,
        -1.0966715812683105,
        1.0682692527770996
      ],
      "min": [
        -34.87049102783203,
        -2.941816806793213,
        -1.0682685375213623
      ],
      "type": "VEC3"
    },
    {
      "bufferView": 2,
      "byteOffset": 481428,
      "componentType": 5126,
      "count": 331,
      "max": [
        1.0,
        1.0,
        1.0
      ],
      "min": [
        -0.9997239112854004,
        -1.0,
        -1.0
      ],
      "type": "VEC3"
    },
    {
      "bufferView": 1,
      "byteOffset": 90276,
      "componentType": 5125,
      "count": 390,
      "type": "SCALAR"
    },
    {
      "bufferView": 2,
      "byteOffset": 485400,
      "componentType": 5126,
      "count": 468,
      "max": [
        -1.0361804962158203,
        1.9268749952316284,
        0.7434467077255249
      ],
      "min": [
        -3.0518569946289063,
        -0.20238280296325684,
        -0.6432549357414246
      ],
      "type": "VEC3"
    },
    {
      "bufferView": 2,
      "byteOffset": 491016,
      "componentType": 5126,
      "count": 468,
      "max": [
        0.9992345571517944,
        0.8702606558799744,
        0.9986571073532104
      ],
      "min": [
        -0.006803479976952076,
        -0.8660991191864014,
        -0.9986571669578552
      ],
      "type": "VEC3"
    },
    {
      "bufferView": 1,
      "byteOffset": 91836,
      "componentType": 5125,
      "count": 468,
      "type": "SCALAR"
    },
    {
      "bufferView": 2,
      "byteOffset": 496632,
      "componentType": 5126,
      "count": 144,
      "max": [
        -7.408917427062988,
        1.5407569408416748,
        0.6259957551956177
      ],
      "min": [
        -7.69978666305542,
        -0.2516942024230957,
        -0.5258026719093323
      ],
      "type": "VEC3"
    },
    {
      "bufferView": 2,
      "byteOffset": 498360,
      "componentType": 5126,
      "count": 144,
      "max": [
        0.0578753836452961,
        0.8692338466644287,
        1.0
      ],
      "min": [
        -0.9992345571517944,
        -0.8692344427108765,
        -1.0
      ],
      "type": "VEC3"
    },
    {
      "bufferView": 1,
      "byteOffset": 93708,
      "componentType": 5125,
      "count": 144,
      "type": "SCALAR"
    },
    {
      "bufferView": 2,
      "byteOffset": 500088,
      "componentType": 5126,
      "count": 1184,
      "max": [
        -2.8341846466064453,
        1.997014045715332,
        0.9149753451347351
      ],
      "min": [
        -7.711406707763672,
        -0.5788869857788086,
        -0.8147823214530945
      ],
      "type": "VEC3"
    },
    {
      "bufferView": 2,
      "byteOffset": 514296,
      "componentType": 5126,
      "count": 1184,
      "max": [
        0.9992347359657288,
        0.8696957230567932,
        1.0
      ],
      "min": [
        -0.9992346167564392,
        -0.869234561920166,
        -1.0
      ],
      "type": "VEC3"
    },
    {
      "bufferView": 1,
      "byteOffset": 94284,
      "componentType": 5125,
      "count": 1188,
      "type": "SCALAR"
    },
    {
      "bufferView": 2,
      "byteOffset": 528504,
      "componentType": 5126,
      "count": 108,
      "max": [
        1.1998896598815918,
        -10.949692726135254,
        1.2049001455307007
      ],
      "min": [
        -6.185873985290527,
        -13.499125480651855,
        -1.2049033641815186
      ],
      "type": "VEC3"
    },
    {
      "bufferView": 2,
      "byteOffset": 529800,
      "componentType": 5126,
      "count": 108,
      "max": [
        0.9969196915626526,
        0.9724216461181641,
        1.0
      ],
      "min": [
        -0.9882790446281433,
        -0.9710870385169983,
        -1.0
      ],
      "type": "VEC3"
    },
    {
      "bufferView": 1,
      "byteOffset": 99036,
      "componentType": 5125,
      "count": 108,
      "type": "SCALAR"
    },
    {
      "bufferView": 2,
      "byteOffset": 531096,
      "componentType": 5126,
      "count": 84,
      "max": [
        21.595979690551758,
        5.450693130493164,
        0.765775740146637
      ],
      "min": [
        2.3679051399230957,
        3.713933229446411,
        -0.765774667263031
      ],
      "type": "VEC3"
    },
    {
      "bufferView": 2,
      "byteOffset": 532104,
      "componentType": 5126,
      "count": 84,
      "max": [
        0.22472693026065826,
        0.869900107383728,
        1.0
      ],
      "min": [
        -1.0,
        -0.8699001669883728,
        -1.0
      ],
      "type": "VEC3"
    },
    {
      "bufferView": 1,
      "byteOffset": 99468,
      "componentType": 5125,
      "count": 84,
      "type": "SCALAR"
    },
    {
      "bufferView": 4,
      "componentType": 5126,
      "count": 13,
      "max": [
        11.82905387878418,
        0.11829053610563278,
        3.5562276679002025e-08,
        0.0,
        4.2302218616896425e-08,
        11.61687183380127,
        1.1304038594062149e-08,
        0.0,
        3.11089998206171e-08,
        2.256889075624713e-08,
        11.82905387878418,
        0.0,
        0.4291987121105194,
        1.7819938659667969,
        1.094687505087677e-07,
        1.0
      ],
      "min": [
        -0.11690831929445267,
        0.0,
        -0.11829053610563278,
        0.0,
        -0.11616871505975723,
        -0.11616871505975723,
        -0.11492346227169037,
        0.0,
        -0.11829053610563278,
        -4.3074987132740716e-08,
        -3.3313825031910937e-09,
        0.0,
        -0.18836632370948792,
        -0.5208536982536316,
        -1.0379712581634521,
        1.0
      ],
      "type": "MAT4"
    },
    {
      "bufferView": 0,
      "componentType": 5123,
      "count": 420,
      "type": "VEC4"
    },
    {
      "bufferView": 3,
      "componentType": 5126,
      "count": 420,
      "max": [
        1.0,
        0.0,
        0.0,
        0.0
      ],
      "min": [
        1.0,
        0.0,
        0.0,
        0.0
      ],
      "type": "VEC4"
    },
    {
      "bufferView": 0,
      "byteOffset": 3360,
      "componentType": 5123,
      "count": 60,
      "type": "VEC4"
    },
    {
      "bufferView": 3,
      "byteOffset": 6720,
      "componentType": 5126,
      "count": 60,
      "max": [
        1.0,
        0.0,
        0.0,
        0.0
      ],
      "min": [
        1.0,
        0.0,
        0.0,
        0.0
      ],
      "type": "VEC4"
    },
    {
      "bufferView": 0,
      "byteOffset": 3840,
      "componentType": 5123,
      "count": 1814,
      "type": "VEC4"
    },
    {
      "bufferView": 3,
      "byteOffset": 7680,
      "componentType": 5126,
      "count": 1814,
      "max": [
        1.0,
        0.0,
        0.0,
        0.0
      ],
      "min": [
        1.0,
        0.0,
        0.0,
        0.0
      ],
      "type": "VEC4"
    },
    {
      "bufferView": 0,
      "byteOffset": 18352,
      "componentType": 5123,
      "count": 571,
      "type": "VEC4"
    },
    {
      "bufferView": 3,
      "byteOffset": 36704,
      "componentType": 5126,
      "count": 571,
      "max": [
        1.0,
        0.0,
        0.0,
        0.0
      ],
      "min": [
        1.0,
        0.0,
        0.0,
        0.0
      ],
      "type": "VEC4"
    },
    {
      "bufferView": 0,
      "byteOffset": 22920,
      "componentType": 5123,
      "count": 167,
      "type": "VEC4"
    },
    {
      "bufferView": 3,
      "byteOffset": 45840,
      "componentType": 5126,
      "count": 167,
      "max": [
        1.0,
        0.0,
        0.0,
        0.0
      ],
      "min": [
        1.0,
        0.0,
        0.0,
        0.0
      ],
      "type": "VEC4"
    },
    {
      "bufferView": 0,
      "byteOffset": 24256,
      "componentType": 5123,
      "count": 4904,
      "type": "VEC4"
    },
    {
      "bufferView": 3,
      "byteOffset": 48512,
      "componentType": 5126,
      "count": 4904,
      "max": [
        1.0,
        0.0,
        0.0,
        0.0
      ],
      "min": [
        1.0,
        0.0,
        0.0,
        0.0
      ],
      "type": "VEC4"
    },
    {
      "bufferView": 0,
      "byteOffset": 63488,
      "componentType": 5123,
      "count": 885,
      "type": "VEC4"
    },
    {
      "bufferView": 3,
      "byteOffset": 126976,
      "componentType": 5126,
      "count": 885,
      "max": [
        1.0,
        0.0,
        0.0,
        0.0
      ],
      "min": [
        1.0,
        0.0,
        0.0,
        0.0
      ],
      "type": "VEC4"
    },
    {
      "bufferView": 0,
      "byteOffset": 70568,
      "componentType": 5123,
      "count": 1171,
      "type": "VEC4"
    },
    {
      "bufferView": 3,
      "byteOffset": 141136,
      "componentType": 5126,
      "count": 1171,
      "max": [
        1.0,
        0.0,
        0.0,
        0.0
      ],
      "min": [
        1.0,
        0.0,
        0.0,
        0.0
      ],
      "type": "VEC4"
    },
    {
      "bufferView": 0,
      "byteOffset": 79936,
      "componentType": 5123,
      "count": 500,
      "type": "VEC4"
    },
    {
      "bufferView": 3,
      "byteOffset": 159872,
      "componentType": 5126,
      "count": 500,
      "max": [
        1.0,
        0.0,
        0.0,
        0.0
      ],
      "min": [
        1.0,
        0.0,
        0.0,
        0.0
      ],
      "type": "VEC4"
    },
    {
      "bufferView": 0,
      "byteOffset": 83936,
      "componentType": 5123,
      "count": 334,
      "type": "VEC4"
    },
    {
      "bufferView": 3,
      "byteOffset": 167872,
      "componentType": 5126,
      "count": 334,
      "max": [
        1.0,
        0.0,
        0.0,
        0.0
      ],
      "min": [
        1.0,
        0.0,
        0.0,
        0.0
      ],
      "type": "VEC4"
    },
    {
      "bufferView": 0,
      "byteOffset": 86608,
      "componentType": 5123,
      "count": 8984,
      "type": "VEC4"
    },
    {
      "bufferView": 3,
      "byteOffset": 173216,
      "componentType": 5126,
      "count": 8984,
      "max": [
        1.0,
        0.0,
        0.0,
        0.0
      ],
      "min": [
        1.0,
        0.0,
        0.0,
        0.0
      ],
      "type": "VEC4"
    },
    {
      "bufferView": 0,
      "byteOffset": 158480,
      "componentType": 5123,
      "count": 84,
      "type": "VEC4"
    },
    {
      "bufferView": 3,
      "byteOffset": 316960,
      "componentType": 5126,
      "count": 84,
      "max": [
        1.0,
        0.0,
        0.0,
        0.0
      ],
      "min": [
        1.0,
        0.0,
        0.0,
        0.0
      ],
      "type": "VEC4"
    },
    {
      "bufferView": 0,
      "byteOffset": 159152,
      "componentType": 5123,
      "count": 331,
      "type": "VEC4"
    },
    {
      "bufferView": 3,
      "byteOffset": 318304,
      "componentType": 5126,
      "count": 331,
      "max": [
        1.0,
        0.0,
        0.0,
        0.0
      ],
      "min": [
        1.0,
        0.0,
        0.0,
        0.0
      ],
      "type": "VEC4"
    },
    {
      "bufferView": 0,
      "byteOffset": 161800,
      "componentType": 5123,
      "count": 468,
      "type": "VEC4"
    },
    {
      "bufferView": 3,
      "byteOffset": 323600,
      "componentType": 5126,
      "count": 468,
      "max": [
        1.0,
        0.0,
        0.0,
        0.0
      ],
      "min": [
        1.0,
        0.0,
        0.0,
        0.0
      ],
      "type": "VEC4"
    },
    {
      "bufferView": 0,
      "byteOffset": 165544,
      "componentType": 5123,
      "count": 144,
      "type": "VEC4"
    },
    {
      "bufferView": 3,
      "byteOffset": 331088,
      "componentType": 5126,
      "count": 144,
      "max": [
        1.0,
        0.0,
        0.0,
        0.0
      ],
      "min": [
        1.0,
        0.0,
        0.0,
        0.0
      ],
      "type": "VEC4"
    },
    {
      "bufferView": 0,
      "byteOffset": 166696,
      "componentType": 5123,
      "count": 1184,
      "type": "VEC4"
    },
    {
      "bufferView": 3,
      "byteOffset": 333392,
      "componentType": 5126,
      "count": 1184,
      "max": [
        1.0,
        0.0,
        0.0,
        0.0
      ],
      "min": [
        1.0,
        0.0,
        0.0,
        0.0
      ],
      "type": "VEC4"
    },
    {
      "bufferView": 0,
      "byteOffset": 176168,
      "componentType": 5123,
      "count": 108,
      "type": "VEC4"
    },
    {
      "bufferView": 3,
      "byteOffset": 352336,
      "componentType": 5126,
      "count": 108,
      "max": [
        1.0,
        0.0,
        0.0,
        0.0
      ],
      "min": [
        1.0,
        0.0,
        0.0,
        0.0
      ],
      "type": "VEC4"
    },
    {
      "bufferView": 0,
      "byteOffset": 177032,
      "componentType": 5123,
      "count": 84,
      "type": "VEC4"
    },
    {
      "bufferView": 3,
      "byteOffset": 354064,
      "componentType": 5126,
      "count": 84,
      "max": [
        1.0,
        0.0,
        0.0,
        0.0
      ],
      "min": [
        1.0,
        0.0,
        0.0,
        0.0
      ],
      "type": "VEC4"
    }
  ],
  "asset": {
    "extras": {
      "author": "TastyTony (https://sketchfab.com/TastyTony)",
      "license": "CC-BY-4.0 (http://creativecommons.org/licenses/by/4.0/)",
      "source": "https://sketchfab.com/3d-models/low-poly-ak-308-b2538bf6e49a4084ad5ae2adf6a995ca",
      "title": "Low-Poly AK-308"
    },
    "generator": "Sketchfab-15.25.0",
    "version": "2.0"
  },
  "bufferViews": [
    {
      "buffer": 0,
      "byteLength": 177704,
      "byteStride": 8,
      "name": "shortBufferViews",
      "target": 34962
    },
    {
      "buffer": 0,
      "byteLength": 99804,
      "byteOffset": 177704,
      "name": "floatBufferViews",
      "target": 34963
    },
    {
      "buffer": 0,
      "byteLength": 533112,
      "byteOffset": 277508,
      "byteStride": 12,
      "name": "floatBufferViews",
      "target": 34962
    },
    {
      "buffer": 0,
      "byteLength": 355408,
      "byteOffset": 810620,
      "byteStride": 16,
      "name": "floatBufferViews",
      "target": 34962
    },
    {
      "buffer": 0,
      "byteLength": 832,
      "byteOffset": 1166028,
      "name": "floatBufferViews"
    }
  ],
  "buffers": [
    {
      "byteLength": 1166860,
      "uri": "scene.bin"
    }
  ],
  "extensionsUsed": [
    "KHR_materials_specular"
  ],
  "materials": [
    {
      "doubleSided": true,
      "extensions": {
        "KHR_materials_specular": {
          "specularColorFactor": [
            1.0,
            1.0,
            1.0
          ],
          "specularFactor": 0.0
        }
      },
      "name": "Material.012",
      "pbrMetallicRoughness": {
        "baseColorFactor": [
          0.06478658536000001,
          0.06478658536000001,
          0.06478658536000001,
          1.0
        ],
        "metallicFactor": 0.0
      }
    },
    {
      "doubleSided": true,
      "extensions": {
        "KHR_materials_specular": {
          "specularColorFactor": [
            1.0,
            1.0,
            1.0
          ],
          "specularFactor": 0.0
        }
      },
      "name": "Material.015",
      "pbrMetallicRoughness": {
        "baseColorFactor": [
          0.035518292720000004,
          0.035518292720000004,
          0.035518292720000004,
          1.0
        ],
        "metallicFactor": 0.0
      }
    },
    {
      "doubleSided": true,
      "extensions": {
        "KHR_materials_specular": {
          "specularColorFactor": [
            1.0,
            1.0,
            1.0
          ],
          "specularFactor": 0.0
        }
      },
      "name": "Material.006",
      "pbrMetallicRoughness": {
        "baseColorFactor": [
          0.08429878048,
          0.08429878048,
          0.08429878048,
          1.0
        ],
        "metallicFactor": 0.0
      }
    },
    {
      "doubleSided": true,
      "extensions": {
        "KHR_materials_specular": {
          "specularColorFactor": [
            1.0,
            1.0,
            1.0
          ],
          "specularFactor": 0.0
        }
      },
      "name": "Material.014",
      "pbrMetallicRoughness": {
        "baseColorFactor": [
          0.03064024392,
          0.03064024392,
          0.03064024392,
          1.0
        ],
        "metallicFactor": 0.0
      }
    },
    {
      "doubleSided": true,
      "extensions": {
        "KHR_materials_specular": {
          "specularColorFactor": [
            1.0,
            1.0,
            1.0
          ],
          "specularFactor": 0.0
        }
      },
      "name": "Material.010",
      "pbrMetallicRoughness": {
        "baseColorFactor": [
          0.06966463416,
          0.06966463416,
          0.06966463416,
          1.0
        ],
        "metallicFactor": 0.0
      }
    },
    {
      "doubleSided": true,
      "extensions": {
        "KHR_materials_specular": {
          "specularColorFactor": [
            1.0,
            1.0,
            1.0
          ],
          "specularFactor": 0.0
        }
      },
      "name": "Material",
      "pbrMetallicRoughness": {
        "baseColorFactor": [
          0.035518292720000004,
          0.035518292720000004,
          0.035518292720000004,
          1.0
        ],
        "metallicFactor": 0.0
      }
    },
    {
      "doubleSided": true,
      "extensions": {
        "KHR_materials_specular": {
          "specularColorFactor": [
            1.0,
            1.0,
            1.0
          ],
          "specularFactor": 0.0
        }
      },
      "name": "Material.007",
      "pbrMetallicRoughness": {
        "baseColorFactor": [
          0.05503048784,
          0.05503048784,
          0.05503048784,
          1.0
        ],
        "metallicFactor": 0.0
      }
    },
    {
      "doubleSided": true,
      "extensions": {
        "KHR_materials_specular": {
          "specularColorFactor": [
            1.0,
            1.0,
            1.0
          ],
          "specularFactor": 0.0
        }
      },
      "name": "Material.008",
      "pbrMetallicRoughness": {
        "baseColorFactor": [
          0.035518292720000004,
          0.035518292720000004,
          0.035518292720000004,
          1.0
        ],
        "metallicFactor": 0.0
      }
    },
    {
      "doubleSided": true,
      "extensions": {
        "KHR_materials_specular": {
          "specularColorFactor": [
            1.0,
            1.0,
            1.0
          ],
          "specularFactor": 0.0
        }
      },
      "name": "Material.011",
      "pbrMetallicRoughness": {
        "baseColorFactor": [
          0.050152439039999996,
          0.050152439039999996,
          0.050152439039999996,
          1.0
        ],
        "metallicFactor": 0.0
      }
    },
    {
      "doubleSided": true,
      "extensions": {
        "KHR_materials_specular": {
          "specularColorFactor": [
            1.0,
            1.0,
            1.0
          ],
          "specularFactor": 0.0
        }
      },
      "name": "Material.016",
      "pbrMetallicRoughness": {
        "baseColorFactor": [
          0.050152439039999996,
          0.050152439039999996,
          0.050152439039999996,
          1.0
        ],
        "metallicFactor": 0.0
      }
    },
    {
      "doubleSided": true,
      "extensions": {
        "KHR_materials_specular": {
          "specularColorFactor": [
            1.0,
            1.0,
            1.0
          ],
          "specularFactor": 0.0
        }
      },
      "name": "Material.005",
      "pbrMetallicRoughness": {
        "baseColorFactor": [
          0.0465594722,
          0.0430237986,
          0.0430237986,
          1.0
        ],
        "metallicFactor": 0.0
      }
    },
    {
      "doubleSided": true,
      "extensions": {
        "KHR_materials_specular": {
          "specularColorFactor": [
            1.0,
            1.0,
            1.0
          ],
          "specularFactor": 0.0
        }
      },
      "name": "Material.017",
      "pbrMetallicRoughness": {
        "baseColorFactor": [
          0.10381097560000002,
          0.10381097560000002,
          0.10381097560000002,
          1.0
        ],
        "metallicFactor": 0.0
      }
    },
    {
      "doubleSided": true,
      "extensions": {
        "KHR_materials_specular": {
          "specularColorFactor": [
            1.0,
            1.0,
            1.0
          ],
          "specularFactor": 0.0
        }
      },
      "name": "Material.004",
      "pbrMetallicRoughness": {
        "baseColorFactor": [
          0.0356408125,
          0.0310379044,
          0.0310379044,
          1.0
        ],
        "metallicFactor": 0.0
      }
    },
    {
      "doubleSided": true,
      "extensions": {
        "KHR_materials_specular": {
          "specularColorFactor": [
            1.0,
            1.0,
            1.0
          ],
          "specularFactor": 0.0
        }
      },
      "name": "Material.002",
      "pbrMetallicRoughness": {
        "baseColorFactor": [
          0.1443070644,
          0.0775195428,
          0.04598103,
          1.0
        ],
        "metallicFactor": 0.0
      }
    },
    {
      "doubleSided": true,
      "extensions": {
        "KHR_materials_specular": {
          "specularColorFactor": [
            1.0,
            1.0,
            1.0
          ],
          "specularFactor": 0.0
        }
      },
      "name": "Material.003",
      "pbrMetallicRoughness": {
        "baseColorFactor": [
          0.2265340039,
          0.1279497858,
          0.0535737806,
          1.0
        ],
        "metallicFactor": 0.0
      }
    },
    {
      "doubleSided": true,
      "extensions": {
        "KHR_materials_specular": {
          "specularColorFactor": [
            1.0,
            1.0,
            1.0
          ],
          "specularFactor": 0.0
        }
      },
      "name": "Material.001",
      "pbrMetallicRoughness": {
        "baseColorFactor": [
          0.2140411405,
          0.1902518307,
          0.0662161004,
          1.0
        ],
        "metallicFactor": 0.0
      }
    },
    {
      "doubleSided": true,
      "extensions": {
        "KHR_materials_specular": {
          "specularColorFactor": [
            1.0,
            1.0,
            1.0
          ],
          "specularFactor": 0.0
        }
      },
      "name": "Material.009",
      "pbrMetallicRoughness": {
        "baseColorFactor": [
          0.02430344036307504,
          0.02430344036307504,
          0.02430344036307504,
          1.0
        ],
        "metallicFactor": 0.0
      }
    },
    {
      "doubleSided": true,
      "extensions": {
        "KHR_materials_specular": {
          "specularColorFactor": [
            1.0,
            1.0,
            1.0
          ],
          "specularFactor": 0.0
        }
      },
      "name": "Material.013",
      "pbrMetallicRoughness": {
        "baseColorFactor": [
          0.025762195119999998,
          0.025762195119999998,
          0.025762195119999998,
          1.0
        ],
        "metallicFactor": 0.0
      }
    }
  ],
  "meshes": [
    {
      "name": "Cube.026_Material.012_0",
      "primitives": [
        {
          "attributes": {
            "JOINTS_0": 55,
            "NORMAL": 1,
            "POSITION": 0,
            "WEIGHTS_0": 56
          },
          "indices": 2,
          "material": 0,
          "mode": 4
        }
      ]
    },
    {
      "name": "Cube.026_Material.015_0",
      "primitives": [
        {
          "attributes": {
            "JOINTS_0": 57,
            "NORMAL": 4,
            "POSITION": 3,
            "WEIGHTS_0": 58
          },
          "indices": 5,
          "material": 1,
          "mode": 4
        }
      ]
    },
    {
      "name": "Cube.026_Material.006_0",
      "primitives": [
        {
          "attributes": {
            "JOINTS_0": 59,
            "NORMAL": 7,
            "POSITION": 6,
            "WEIGHTS_0": 60
          },
          "indices": 8,
          "material": 2,
          "mode": 4
        }
      ]
    },
    {
      "name": "Cube.026_Material.014_0",
      "primitives": [
        {
          "attributes": {
            "JOINTS_0": 61,
            "NORMAL": 10,
            "POSITION": 9,
            "WEIGHTS_0": 62
          },
          "indices": 11,
          "material": 3,
          "mode": 4
        }
      ]
    },
    {
      "name": "Cube.026_Material.010_0",
      "primitives": [
        {
          "attributes": {
            "JOINTS_0": 63,
            "NORMAL": 13,
            "POSITION": 12,
            "WEIGHTS_0": 64
          },
          "indices": 14,
          "material": 4,
          "mode": 4
        }
      ]
    },
    {
      "name": "Cube.026_Material_0",
      "primitives": [
        {
          "attributes": {
            "JOINTS_0": 65,
            "NORMAL": 16,
            "POSITION": 15,
            "WEIGHTS_0": 66
          },
          "indices": 17,
          "material": 5,
          "mode": 4
        }
      ]
    },
    {
      "name": "Cube.026_Material.007_0",
      "primitives": [
        {
          "attributes": {
            "JOINTS_0": 67,
            "NORMAL": 19,
            "POSITION": 18,
            "WEIGHTS_0": 68
          },
          "indices": 20,
          "material": 6,
          "mode": 4
        }
      ]
    },
    {
      "name": "Cube.026_Material.008_0",
      "primitives": [
        {
          "attributes": {
            "JOINTS_0": 69,
            "NORMAL": 22,
            "POSITION": 21,
            "WEIGHTS_0": 70
          },
          "indices": 23,
          "material": 7,
          "mode": 4
        }
      ]
    },
    {
      "name": "Cube.026_Material.011_0",
      "primitives": [
        {
          "attributes": {
            "JOINTS_0": 71,
            "NORMAL": 25,
            "POSITION": 24,
            "WEIGHTS_0": 72
          },
          "indices": 26,
          "material": 8,
          "mode": 4
        }
      ]
    },
    {
      "name": "Cube.026_Material.016_0",
      "primitives": [
        {
          "attributes": {
            "JOINTS_0": 73,
            "NORMAL": 28,
            "POSITION": 27,
            "WEIGHTS_0": 74
          },
          "indices": 29,
          "material": 9,
          "mode": 4
        }
      ]
    },
    {
      "name": "Cube.026_Material.005_0",
      "primitives": [
        {
          "attributes": {
            "JOINTS_0": 75,
            "NORMAL": 31,
            "POSITION": 30,
            "WEIGHTS_0": 76
          },
          "indices": 32,
          "material": 10,
          "mode": 4
        }
      ]
    },
    {
      "name": "Cube.026_Material.017_0",
      "primitives": [
        {
          "attributes": {
            "JOINTS_0": 77,
            "NORMAL": 34,
            "POSITION": 33,
            "WEIGHTS_0": 78
          },
          "indices": 35,
          "material": 11,
          "mode": 4
        }
      ]
    },
    {
      "name": "Cube.026_Material.004_0",
      "primitives": [
        {
          "attributes": {
            "JOINTS_0": 79,
            "NORMAL": 37,
            "POSITION": 36,
            "WEIGHTS_0": 80
          },
          "indices": 38,
          "material": 12,
          "mode": 4
        }
      ]
    },
    {
      "name": "Cube.026_Material.002_0",
      "primitives": [
        {
          "attributes": {
            "JOINTS_0": 81,
            "NORMAL": 40,
            "POSITION": 39,
            "WEIGHTS_0": 82
          },
          "indices": 41,
          "material": 13,
          "mode": 4
        }
      ]
    },
    {
      "name": "Cube.026_Material.003_0",
      "primitives": [
        {
          "attributes": {
            "JOINTS_0": 83,
            "NORMAL": 43,
            "POSITION": 42,
            "WEIGHTS_0": 84
          },
          "indices": 44,
          "material": 14,
          "mode": 4
        }
      ]
    },
    {
      "name": "Cube.026_Material.001_0",
      "primitives": [
        {
          "attributes": {
            "JOINTS_0": 85,
            "NORMAL": 46,
            "POSITION": 45,
            "WEIGHTS_0": 86
          },
          "indices": 47,
          "material": 15,
          "mode": 4
        }
      ]
    },
    {
      "name": "Cube.026_Material.009_0",
      "primitives": [
        {
          "attributes": {
            "JOINTS_0": 87,
            "NORMAL": 49,
            "POSITION": 48,
            "WEIGHTS_0": 88
          },
          "indices": 50,
          "material": 16,
          "mode": 4
        }
      ]
    },
    {
      "name": "Cube.026_Material.013_0",
      "primitives": [
        {
          "attributes": {
            "JOINTS_0": 89,
            "NORMAL": 52,
            "POSITION": 51,
            "WEIGHTS_0": 90
          },
          "indices": 53,
          "material": 17,
          "mode": 4
        }
      ]
    }
  ],
  "nodes": [
    {
      "children": [
        1
      ],
      "matrix": [
        1.0,
        0.0,
        0.0,
        0.0,
        0.0,
        2.220446049250313e-16,
        -1.0,
        0.0,
        0.0,
        1.0,
        2.220446049250313e-16,
        0.0,
        0.0,
        0.0,
        0.0,
        1.0
      ],
      "name": "Sketchfab_model"
    },
    {
      "children": [
        2
      ],
      "matrix": [
        1.0,
        0.0,
        0.0,
        0.0,
        0.0,
        0.0,
        1.0,
        0.0,
        0.0,
        -1.0,
        0.0,
        0.0,
        0.0,
        0.0,
        0.0,
        1.0
      ],
      "name": "22b0f42bc119498f9a458b3d68b4358e.fbx"
    },
    {
      "children": [
        3,
        37,
        40
      ],
      "name": "RootNode"
    },
    {
      "children": [
        4
      ],
      "matrix": [
        7.549789970973109e-06,
        -99.99999999999967,
        2.980231184057658e-06,
        0.0,
        -2.8212996699972237e-05,
        -2.980233304583635e-06,
        -99.99999999999596,
        0.0,
        99.99999999999572,
        7.549789121652495e-06,
        -2.8212996916465727e-05,
        0.0,
        52.085365295410156,
        20.566896438598633,
        3.895784175256267e-06,
        1.0
      ],
      "name": "Armature"
    },
    {
      "children": [
        5,
        19,
        20,
        21,
        22,
        23,
        24,
        25,
        26,
        27,
        28,
        29,
        30,
        31,
        32,
        33,
        34,
        35,
        36,
        18
      ],
      "name": "Object_4"
    },
    {
      "children": [
        6
      ],
      "name": "_rootJoint"
    },
    {
      "children": [
        7,
        9,
        14,
        16
      ],
      "name": "body_00",
      "rotation": [
        0.7071068286895752,
        1.1281869781330238e-23,
        -4.2630106427015896e-24,
        0.7071067094802856
      ]
    },
    {
      "children": [
        8
      ],
      "name": "bolt_01",
      "rotation": [
        2.6469779601696886e-23,
        1.6543612251060553e-24,
        6.617450422450558e-24,
        1.0
      ],
      "translation": [
        -0.2235298603773117,
        -1.4823541641235352,
        -1.6913415379349317e-07
      ]
    },
    {
      "name": "bolt_end_09",
      "rotation": [
        1.9852334701272664e-23,
        3.308722450212111e-24,
        6.1136720154628415e-30,
        1.0
      ],
      "translation": [
        0.0,
        1.0,
        2.6469779601696886e-23
      ]
    },
    {
      "children": [
        10,
        12
      ],
      "name": "mag_02",
      "rotation": [
        -1.3600040915662248e-07,
        3.087297528736599e-08,
        -0.6509897708892822,
        0.7590864896774292
      ],
      "translation": [
        0.1121850237250328,
        -0.7258647680282593,
        -1.3105484697462089e-07
      ]
    },
    {
      "children": [
        11
      ],
      "name": "bullet_03",
      "rotation": [
        1.7089351445065404e-07,
        -6.851319511724796e-08,
        0.6735233068466187,
        0.7391659617424011
      ],
      "translation": [
        0.6726140379905701,
        -0.15947605669498444,
        -2.1209133649335854e-07
      ]
    },
    {
      "name": "bullet_end_011",
      "rotation": [
        1.3234889800848443e-23,
        1.3234889800848443e-23,
        -3.233659687032045e-19,
        1.0
      ],
      "translation": [
        2.7755575615628914e-17,
        0.7252814173698425,
        0.0
      ]
    },
    {
      "children": [
        13
      ],
      "name": "bullets_04",
      "rotation": [
        1.7089352866150875e-07,
        -6.851317380096589e-08,
        0.6735232472419739,
        0.7391660213470459
      ],
      "translation": [
        0.6782536506652832,
        -0.02642802894115448,
        -1.9581389665290772e-07
      ]
    },
    {
      "name": "bullets_end_010",
      "rotation": [
        0.0,
        -0.0,
        -3.216905143724783e-19,
        1.0
      ],
      "translation": [
        -1.3877787807814457e-17,
        0.7252814173698425,
        1.3234889800848443e-23
      ]
    },
    {
      "children": [
        15
      ],
      "name": "magrelease_05",
      "rotation": [
        0.4975338578224182,
        0.5024512410163879,
        -0.497536838054657,
        0.5024538636207581
      ],
      "translation": [
        0.4587186574935913,
        -1.5588250160217285,
        -3.074156893489999e-07
      ]
    },
    {
      "name": "magrelease_end_07",
      "rotation": [
        -3.523509460537337e-19,
        -4.235164736271502e-22,
        2.6469779601696886e-23,
        1.0
      ],
      "translation": [
        1.6940658945086007e-21,
        0.2684023380279541,
        0.0
      ]
    },
    {
      "children": [
        17
      ],
      "name": "selector_06",
      "rotation": [
        0.05176739767193794,
        0.7052092552185059,
        -0.051767393946647644,
        0.7052093148231506
      ],
      "scale": [
        1.0,
        1.000000238418579,
        1.0
      ],
      "translation": [
        -0.006588295102119446,
        -2.290825366973877,
        -3.0690742391925596e-07
      ]
    },
    {
      "name": "selector_end_08",
      "rotation": [
        -1.701642041738974e-17,
        3.970466940254533e-23,
        3.3087224502121107e-23,
        1.0
      ],
      "translation": [
        2.6469779601696886e-23,
        0.9557791948318481,
        2.7755575615628914e-17
      ]
    },
    {
      "matrix": [
        11.829053610563939,
        7.691425171351683e-14,
        -1.1777708528500769e-14,
        0.0,
        -1.1566447419618009e-14,
        7.113282252949007e-16,
        -11.616871505975933,
        0.0,
        -7.691425171351545e-14,
        11.829053610563726,
        7.243206320559655e-16,
        0.0,
        -77.49878445460948,
        42.15856586066793,
        6.6219471590849444e-06,
        1.0
      ],
      "name": "Object_18"
    },
    {
      "mesh": 0,
      "name": "Object_19",
      "skin": 0
    },
    {
      "mesh": 1,
      "name": "Object_20",
      "skin": 0
    },
    {
      "mesh": 2,
      "name": "Object_21",
      "skin": 0
    },
    {
      "mesh": 3,
      "name": "Object_22",
      "skin": 0
    },
    {
      "mesh": 4,
      "name": "Object_23",
      "skin": 0
    },
    {
      "mesh": 5,
      "name": "Object_24",
      "skin": 0
    },
    {
      "mesh": 6,
      "name": "Object_25",
      "skin": 0
    },
    {
      "mesh": 7,
      "name": "Object_26",
      "skin": 0
    },
    {
      "mesh": 8,
      "name": "Object_27",
      "skin": 0
    },
    {
      "mesh": 9,
      "name": "Object_28",
      "skin": 0
    },
    {
      "mesh": 10,
      "name": "Object_29",
      "skin": 0
    },
    {
      "mesh": 11,
      "name": "Object_30",
      "skin": 0
    },
    {
      "mesh": 12,
      "name": "Object_31",
      "skin": 0
    },
    {
      "mesh": 13,
      "name": "Object_32",
      "skin": 0
    },
    {
      "mesh": 14,
      "name": "Object_33",
      "skin": 0
    },
    {
      "mesh": 15,
      "name": "Object_34",
      "skin": 0
    },
    {
      "mesh": 16,
      "name": "Object_35",
      "skin": 0
    },
    {
      "mesh": 17,
      "name": "Object_36",
      "skin": 0
    },
    {
      "children": [
        38
      ],
      "matrix": [
        0.4696983223642981,
        95.59449863063362,
        -29.350829886797996,
        0.0,
        0.00033234677684201283,
        29.351154402907973,
        95.59556088535264,
        0.0,
        99.99888928148316,
        -0.4491082237418681,
        0.13754415360240582,
        0.0,
        5.085849761962891,
        498.04400634765625,
        1725.8087158203125,
        1.0
      ],
      "name": "Lamp"
    },
    {
      "children": [
        39
      ],
      "matrix": [
        1.0,
        0.0,
        0.0,
        0.0,
        0.0,
        2.220446049250313e-16,
        1.0,
        0.0,
        0.0,
        -1.0,
        2.220446049250313e-16,
        0.0,
        0.0,
        0.0,
        0.0,
        1.0
      ],
      "name": "Object_38"
    },
    {
      "name": "Object_39"
    },
    {
      "children": [
        41
      ],
      "matrix": [
        1.9470721841536002e-05,
        0.0,
        -100.00001525878717,
        0.0,
        5.024296971964058e-13,
        100.00001525878906,
        9.782667388797899e-20,
        0.0,
        99.99999999999811,
        -5.024296205317393e-13,
        1.9470718870540082e-05,
        0.0,
        -5.604650020599365,
        -31.79364776611328,
        808.7685546875,
        1.0
      ],
      "name": "Camera"
    },
    {
      "name": "Object_41"
    }
  ],
  "scene": 0,
  "scenes": [
    {
      "name": "Sketchfab_Scene",
      "nodes": [
        0
      ]
    }
  ],
  "skins": [
    {
      "inverseBindMatrices": 54,
      "joints": [
        5,
        6,
        7,
        8,
        9,
        10,
        11,
        12,
        13,
        14,
        15,
        16,
        17
      ],
      "skeleton": 5
    }
  ]
}
